<?xml version="1.0" standalone="no"?>
<!DOCTYPE svg PUBLIC "-//W3C//DTD SVG 20010904//EN"
 "http://www.w3.org/TR/2001/REC-SVG-20010904/DTD/svg10.dtd">
<svg version="1.0" xmlns="http://www.w3.org/2000/svg"
 width="371.000000pt" height="371.000000pt" viewBox="0 0 371.000000 371.000000"
 preserveAspectRatio="xMidYMid meet">
<metadata>
Created by potrace 1.14, written by Peter Selinger 2001-2017
</metadata>
<g transform="translate(0.000000,371.000000) scale(0.100000,-0.100000)"
fill="#000000" stroke="none">
<path d="M2930 2606 c-71 -21 -102 -36 -136 -61 -35 -27 -202 -223 -251 -296
-17 -25 -38 -51 -47 -58 -9 -8 -65 -16 -143 -22 -71 -4 -189 -16 -263 -25 -74
-8 -161 -18 -192 -21 l-58 -5 -72 67 c-63 58 -149 126 -297 238 -24 18 -54 30
-88 33 -49 6 -52 5 -98 -37 -80 -74 -181 -238 -243 -394 -11 -27 -33 -79 -49
-115 -52 -114 -63 -140 -63 -154 0 -24 -32 -28 -54 -7 -65 60 -232 116 -388
131 -61 6 -114 13 -119 15 -14 9 -214 -17 -237 -31 -25 -16 -29 -42 -8 -50 8
-3 90 -7 183 -9 92 -1 202 -7 243 -13 150 -22 344 -124 325 -171 -8 -18 -12
-31 -50 -171 -14 -52 -31 -100 -38 -107 -9 -9 -22 -9 -53 -1 -31 9 -71 8 -160
-1 -297 -33 -559 -140 -465 -190 14 -8 34 -4 82 16 60 24 95 35 214 68 69 18
284 36 320 26 34 -9 37 -31 16 -106 -10 -36 -35 -200 -61 -395 -19 -146 -30
-333 -30 -521 l0 -189 50 0 51 0 -6 57 c-11 102 21 687 39 733 3 8 10 53 16
100 15 126 25 178 49 255 12 39 26 86 31 105 4 19 15 60 24 91 9 31 16 63 16
73 0 9 4 24 9 34 5 9 14 35 21 57 7 22 19 56 27 75 15 36 18 42 48 120 10 25
21 54 25 65 4 11 20 47 35 80 15 33 31 69 35 80 41 107 148 296 203 359 l34
38 42 -22 c24 -12 68 -42 100 -67 31 -24 63 -50 71 -56 175 -137 173 -134 180
-233 5 -90 23 -126 74 -154 25 -14 30 -13 73 11 38 21 48 33 59 70 8 24 14 61
14 82 0 36 1 37 35 37 l35 0 0 -57 c0 -97 50 -153 123 -139 52 10 71 45 77
141 l5 80 40 0 40 0 6 -60 c11 -106 32 -135 96 -135 71 0 103 46 103 151 0 48
4 64 24 87 14 15 41 52 62 82 48 71 157 203 211 256 46 45 116 74 179 74 42 0
51 -8 121 -114 27 -39 51 -72 56 -74 4 -2 7 -11 7 -20 0 -15 60 -139 120 -248
27 -50 92 -94 138 -94 l34 0 -22 -27 c-86 -111 -100 -133 -100 -152 0 -26 42
-55 69 -46 11 3 40 34 64 68 25 34 62 79 83 100 l39 39 6 -124 c6 -131 26
-199 69 -226 20 -12 20 -10 20 305 l0 318 -21 -40 c-27 -50 -40 -59 -103 -74
-28 -7 -74 -20 -103 -29 -75 -22 -59 -43 -221 283 -40 82 -130 202 -168 226
-44 27 -105 32 -164 15z"/>
<path d="M3488 1557 c-33 -13 -52 -51 -38 -76 14 -27 23 -28 148 -23 l112 4 0
54 0 54 -97 -1 c-54 -1 -110 -6 -125 -12z"/>
<path d="M2893 1504 c-17 -7 -44 -30 -60 -50 -23 -31 -28 -47 -28 -94 0 -46 5
-63 27 -93 73 -94 191 -89 261 13 23 33 23 127 0 160 -48 70 -128 96 -200 64z"/>
<path d="M1396 1395 c-16 -8 -41 -30 -57 -48 -25 -27 -29 -40 -29 -91 0 -102
58 -161 157 -159 62 0 93 18 129 73 52 78 18 182 -71 224 -42 20 -92 20 -129
1z"/>
<path d="M2150 1318 c-11 -24 -20 -50 -20 -59 0 -27 -50 -69 -89 -75 -65 -10
-93 -48 -62 -83 39 -45 159 -15 204 49 15 21 15 22 34 3 42 -42 67 -53 124
-53 48 0 59 3 72 23 23 35 -4 77 -50 77 -46 0 -73 22 -91 72 -21 61 -45 88
-78 88 -20 0 -29 -9 -44 -42z"/>
</g>
</svg>
